<?xml version="1.0" standalone="no"?>
<!DOCTYPE svg PUBLIC "-//W3C//DTD SVG 20010904//EN"
 "http://www.w3.org/TR/2001/REC-SVG-20010904/DTD/svg10.dtd">
<svg version="1.0" xmlns="http://www.w3.org/2000/svg"
 width="600.000000pt" height="600.000000pt" viewBox="0 0 600.000000 600.000000"
 preserveAspectRatio="xMidYMid meet">
<metadata>
Created by potrace 1.11, written by Peter Selinger 2001-2013
</metadata>
<g transform="translate(0.000000,600.000000) scale(0.100000,-0.100000)"
fill="#000000" stroke="none">
<path d="M2917 5994 c-1 -1 -36 -5 -78 -8 -42 -4 -85 -8 -95 -10 -11 -2 -41
-7 -69 -10 -27 -4 -93 -16 -146 -27 -52 -11 -104 -21 -115 -23 -46 -9 -155
-39 -229 -62 -231 -74 -374 -134 -554 -232 -124 -69 -117 -64 -214 -130 -359
-245 -615 -585 -776 -1032 -49 -137 -61 -170 -66 -190 -35 -142 -52 -218 -61
-275 -23 -140 -33 -216 -40 -319 -4 -62 -4 -274 0 -336 11 -154 18 -237 21
-250 2 -8 7 -49 10 -90 4 -41 9 -84 11 -95 2 -11 6 -38 9 -60 9 -66 54 -256
79 -335 64 -196 69 -232 67 -430 -1 -102 -3 -229 -4 -283 -11 -424 103 -652
399 -801 130 -64 225 -86 396 -92 193 -5 224 -9 292 -34 108 -41 156 -128 161
-290 8 -215 24 -258 128 -324 44 -28 120 -66 132 -66 2 0 6 14 10 30 8 34 58
90 83 91 9 0 24 2 33 4 26 5 76 -22 95 -50 11 -17 19 -50 20 -86 1 -32 5 -63
9 -68 5 -9 40 -22 98 -37 4 -1 9 -3 12 -4 3 -1 8 -3 13 -4 36 -9 70 -17 87
-20 11 -3 40 -9 65 -15 25 -5 70 -12 101 -15 l56 -6 1 35 c6 159 232 160 232
0 l0 -36 53 6 c70 8 109 15 129 21 9 3 26 7 38 9 12 2 67 17 121 32 l99 27 0
61 c0 122 79 180 179 132 25 -12 64 -84 54 -100 -19 -31 144 52 190 97 66 64
75 94 78 261 1 127 24 202 76 257 65 69 134 86 376 93 115 3 170 9 226 25 198
56 368 170 456 305 31 49 79 167 90 223 24 127 29 194 25 367 -7 389 -5 452
20 535 6 19 13 42 15 50 2 8 17 62 35 120 17 58 34 116 36 130 3 14 13 70 24
125 19 103 24 133 35 245 4 36 8 76 11 89 24 162 24 560 -1 741 -15 106 -26
174 -31 192 -3 10 -7 30 -10 45 -3 16 -7 36 -10 45 -3 9 -7 25 -9 37 -18 94
-89 302 -153 448 -251 575 -706 965 -1397 1200 -91 31 -283 85 -345 97 -44 8
-134 25 -165 31 -16 2 -39 7 -50 9 -97 18 -358 40 -368 30z m-1461 -3218 c35
-20 111 -71 167 -114 197 -150 287 -204 442 -262 17 -7 39 -14 50 -16 83 -19
129 -26 185 -29 124 -7 174 -23 234 -75 126 -111 125 -265 -4 -414 -67 -77
-216 -161 -455 -256 -71 -29 -134 -53 -140 -54 -5 -1 -35 -9 -65 -18 -85 -25
-178 -38 -270 -38 -186 -1 -342 80 -423 219 -53 91 -96 226 -112 351 -4 30 -9
62 -10 70 -8 44 -17 206 -16 279 2 94 23 166 71 240 40 63 107 130 145 147 50
22 127 10 201 -30z m3246 22 c69 -34 152 -142 187 -243 18 -53 20 -78 16 -210
-2 -82 -7 -168 -9 -190 -50 -395 -165 -578 -405 -640 -63 -16 -172 -21 -243
-10 -21 3 -53 7 -70 10 -129 18 -459 146 -613 237 -82 49 -180 144 -214 208
-56 107 -33 228 59 314 55 52 112 71 235 81 67 6 152 20 225 39 37 10 151 64
220 104 65 38 286 195 300 213 3 3 32 23 65 44 103 66 175 78 247 43z m-1681
-1029 c16 -17 29 -35 29 -40 0 -5 11 -32 24 -61 34 -73 94 -282 100 -343 5
-58 -13 -108 -44 -125 -22 -12 -50 -9 -120 13 -41 13 -49 13 -93 -4 -26 -11
-56 -19 -66 -19 -30 0 -70 39 -77 75 -16 87 93 440 159 513 28 30 54 28 88 -9z"/>
</g>
</svg>
