<?xml version="1.0" standalone="no"?>
<!DOCTYPE svg PUBLIC "-//W3C//DTD SVG 20010904//EN"
 "http://www.w3.org/TR/2001/REC-SVG-20010904/DTD/svg10.dtd">
<svg version="1.0" xmlns="http://www.w3.org/2000/svg"
 width="260.000000pt" height="260.000000pt" viewBox="0 0 260.000000 260.000000"
 preserveAspectRatio="xMidYMid meet">
<metadata>
Created by potrace 1.11, written by Peter Selinger 2001-2013
</metadata>
<g transform="translate(0.000000,260.000000) scale(0.100000,-0.100000)"
fill="#000000" stroke="none">
<path d="M1225 2583 c-77 -9 -236 -47 -314 -75 -380 -134 -589 -378 -668 -776
-33 -172 -15 -485 38 -642 18 -54 23 -97 28 -265 8 -229 20 -275 93 -341 68
-61 136 -86 259 -94 122 -8 152 -21 175 -75 8 -19 14 -61 14 -92 0 -69 15 -95
70 -123 39 -20 39 -20 45 0 18 56 95 39 95 -20 0 -35 18 -45 120 -64 l64 -12
16 30 c25 50 84 45 92 -7 3 -25 15 -25 119 -1 66 15 67 16 73 54 4 23 14 43
24 49 27 15 62 2 73 -26 l9 -24 41 23 c53 30 62 48 69 140 9 117 49 148 185
148 161 0 297 85 336 209 6 20 15 124 19 231 6 163 12 210 33 286 37 130 50
272 44 448 -17 479 -255 802 -701 951 -160 54 -344 82 -451 68z m-598 -1374
c15 -6 61 -35 102 -66 103 -78 176 -112 266 -123 86 -11 105 -19 134 -56 41
-53 19 -134 -51 -187 -81 -62 -268 -127 -364 -127 -134 0 -207 75 -233 240
-26 158 -9 247 59 304 35 29 46 31 87 15z m1450 -21 c13 -12 33 -41 44 -66 20
-40 21 -55 15 -142 -16 -247 -94 -340 -274 -327 -120 8 -301 85 -364 155 -46
50 -55 90 -32 137 21 45 56 63 143 74 87 11 163 45 268 122 45 32 92 63 105
69 30 12 68 4 95 -22z m-712 -520 c39 -125 29 -169 -35 -146 -17 5 -37 5 -55
-2 -43 -16 -59 3 -52 65 6 58 41 158 64 180 14 14 17 14 34 -1 11 -10 30 -53
44 -96z"/>
</g>
</svg>
